<svg width="803" height="670" viewBox="0 0 803 670" fill="none" xmlns="http://www.w3.org/2000/svg">
<g filter="url(#filter0_d_11_3)">
<path d="M304.989 356L231.937 88.8381H264.81L320.643 306.429H323.252L380.128 88.8381H416.654L473.531 306.429H476.14L531.972 88.8381H564.846L491.794 356H458.398L399.435 143.105H397.348L338.384 356H304.989Z" fill="#F5F5F5"/>
</g>
<g filter="url(#filter1_d_11_3)">
<path d="M322.004 259.536L359.465 92.2034H284.544L322.004 259.536Z" fill="#F5F5F5"/>
</g>
<g filter="url(#filter2_d_11_3)">
<path d="M472.262 259.536L509.723 92.2034H434.801L472.262 259.536Z" fill="#F5F5F5"/>
</g>
<g filter="url(#filter3_d_11_3)">
<path d="M397.133 186.684L448.395 354.016H345.871L397.133 186.684Z" fill="#F5F5F5"/>
</g>
<g filter="url(#filter4_d_11_3)">
<path d="M97.6156 405.455C97.6156 412.668 97.3151 420.381 96.714 428.595C96.113 436.809 95.4619 444.072 94.7607 450.382C94.2598 455.792 93.3082 461.752 91.9058 468.263C90.5034 474.774 88.8005 480.384 86.797 485.092C84.7936 489.7 82.7401 492.004 80.6365 492.004C79.3343 492.004 77.8317 489.75 76.1288 485.242C74.4258 480.734 72.2221 474.123 69.5174 465.408L66.963 456.994C65.16 451.184 63.1565 445.324 60.9527 439.414C58.749 433.403 57.0461 429.146 55.844 426.642L49.3829 448.73C43.4728 468.964 39.1654 482.838 36.4608 490.351C36.3606 490.551 36.0601 491.253 35.5592 492.455C35.1585 493.757 34.4073 494.708 33.3054 495.309C32.2035 496.011 30.751 496.361 28.9479 496.361C28.5472 496.361 27.6958 493.757 26.3935 488.548C25.1915 483.339 23.9393 477.579 22.6371 471.268C19.3314 456.944 17.5784 449.381 17.3781 448.579C14.9739 438.763 12.9705 431.4 11.3678 426.492C9.86519 421.583 8.51288 418.628 7.31082 417.626C5.6079 416.324 4.75644 414.922 4.75644 413.419C4.75644 412.718 5.2573 411.967 6.25901 411.165C7.3609 410.264 8.61305 409.813 10.0155 409.813C11.2175 409.813 12.1691 409.913 12.8703 410.113C13.5715 410.214 14.1225 410.614 14.5232 411.316C15.9256 413.619 18.6302 423.336 22.6371 440.465C23.0378 441.768 23.5386 443.721 24.1397 446.326C26.2433 455.04 27.9963 462.553 29.3987 468.864C30.2 472.07 30.8512 474.975 31.352 477.579C31.953 480.083 32.4539 481.987 32.8546 483.289C32.9548 482.387 33.9565 478.881 35.8597 472.771C39.1654 462.553 41.7198 453.888 43.5229 446.776C45.4261 439.564 47.1791 433.604 48.7819 428.896C50.3846 424.087 51.6368 421.082 52.5383 419.88C53.1394 419.179 53.9407 418.578 54.9424 418.077C56.0443 417.476 57.0961 417.176 58.0979 417.176C58.7991 417.176 59.35 417.426 59.7507 417.927C60.1514 418.328 60.502 418.878 60.8025 419.58C61.103 420.281 61.4035 420.882 61.704 421.383C62.7058 423.386 64.3085 427.593 66.5123 434.004C68.8162 440.415 70.8697 446.726 72.6728 452.937L74.7764 459.849C77.9819 470.968 80.336 478.38 81.8385 482.087C85.3446 475.075 87.7487 463.355 89.0509 446.927C89.7521 440.716 90.1027 431.951 90.1027 420.631L89.9524 405.455C89.9524 404.153 90.1027 403.252 90.4032 402.751C90.7037 402.15 91.4049 401.849 92.5068 401.849C93.7089 401.849 94.8609 402.25 95.9627 403.051C97.0646 403.753 97.6156 404.554 97.6156 405.455ZM201.742 451.284C201.742 452.887 200.59 454.039 198.286 454.74C196.483 455.341 194.279 455.742 191.674 455.942C189.17 456.042 187.517 456.092 186.716 456.092C186.616 459.198 186.415 462.653 186.115 466.46C185.814 470.267 185.564 473.422 185.364 475.926L184.913 480.584L184.612 485.392L183.711 496.962C183.31 502.071 181.657 504.625 178.752 504.625C177.65 504.625 176.549 503.323 175.447 500.719C174.445 498.214 173.944 496.161 173.944 494.558C173.944 494.157 174.345 493.356 175.146 492.154C175.947 490.952 176.448 489.449 176.649 487.646C177.049 484.842 177.5 480.184 178.001 473.672C178.502 467.161 178.852 461.702 179.053 457.294C175.146 457.595 170.939 458.046 166.431 458.647C164.428 458.847 159.92 459.298 152.908 459.999C145.896 460.7 140.387 461.151 136.38 461.351C135.979 467.963 135.528 476.026 135.027 485.543C134.526 495.059 134.276 500.869 134.276 502.973C134.276 503.774 134.376 504.826 134.577 506.128C134.877 507.43 135.027 508.432 135.027 509.133C135.027 510.035 134.326 510.936 132.924 511.838C131.622 512.739 130.57 513.19 129.768 513.19C128.767 513.19 127.915 512.539 127.214 511.237C126.613 509.935 126.312 508.432 126.312 506.729C126.312 505.827 126.413 504.325 126.613 502.221C126.813 500.218 126.964 498.465 127.064 496.962C127.464 494.258 127.715 492.054 127.815 490.351C128.316 484.441 128.717 478.731 129.017 473.222C129.318 467.712 129.518 464.006 129.618 462.103C123.307 463.204 117.347 463.755 111.737 463.755C109.834 463.755 108.231 463.305 106.929 462.403C105.527 461.401 104.826 459.999 104.826 458.196C104.826 456.894 105.176 455.942 105.877 455.341C106.478 454.64 107.781 454.289 109.784 454.289L117.748 454.439C122.957 454.64 127.164 454.74 130.369 454.74C130.87 446.225 131.121 439.414 131.121 434.305C131.121 422.685 131.02 412.267 130.82 403.051V397.492C130.82 395.989 131.371 394.787 132.473 393.886C133.675 392.884 135.027 392.383 136.53 392.383C137.632 392.383 138.383 393.235 138.784 394.937C139.184 396.64 139.385 398.544 139.385 400.647C139.385 402.851 139.134 407.359 138.634 414.17C138.033 425.79 137.732 431.951 137.732 432.652L136.981 454.139C145.395 453.939 159.67 452.636 179.804 450.232C180.205 447.327 180.906 439.714 181.908 427.393C182.308 420.882 182.659 416.124 182.96 413.119L183.861 401.399C185.163 386.673 185.814 377.457 185.814 373.751C185.814 372.449 186.315 371.397 187.317 370.596C188.319 369.794 189.471 369.394 190.773 369.394C192.576 369.394 193.478 371.147 193.478 374.653C193.478 376.856 192.977 382.716 191.975 392.233C190.873 404.654 190.272 411.566 190.172 412.968C189.571 420.682 188.97 428.044 188.369 435.056C187.868 442.068 187.517 446.776 187.317 449.18C189.12 448.88 190.723 448.429 192.125 447.828C193.928 447.227 195.331 446.927 196.332 446.927C197.334 446.927 198.486 447.528 199.788 448.73C201.091 449.932 201.742 450.783 201.742 451.284ZM309.566 430.548C309.566 440.866 306.661 450.733 300.851 460.149C295.041 469.565 287.578 477.178 278.462 482.988C269.347 488.798 260.131 491.703 250.815 491.703C245.406 491.703 240.297 490.601 235.489 488.398C230.68 486.094 226.774 482.738 223.769 478.33C220.763 473.923 219.261 468.614 219.261 462.403C219.261 451.785 222.016 440.816 227.525 429.497C233.034 418.077 240.698 407.359 250.514 397.342C251.516 396.44 252.468 395.839 253.369 395.538C254.271 395.238 255.323 395.088 256.525 395.088C257.526 395.088 258.478 395.338 259.38 395.839C260.381 396.34 260.882 396.941 260.882 397.642C260.882 398.043 260.682 398.644 260.281 399.445C259.981 400.146 259.78 400.597 259.68 400.797C260.281 400.797 260.982 400.747 261.784 400.647C262.685 400.447 264.388 400.347 266.892 400.347C269.797 400.347 273.704 400.848 278.612 401.849C283.621 402.751 287.277 403.702 289.581 404.704C296.092 407.609 301.051 411.366 304.457 415.973C307.863 420.481 309.566 425.34 309.566 430.548ZM303.104 433.704C303.104 427.894 301.752 423.186 299.048 419.58C296.343 415.873 292.336 412.818 287.027 410.414C284.122 409.112 280.466 408.461 276.058 408.461C274.656 408.461 272.752 408.561 270.348 408.761L264.789 408.911C259.981 408.911 257.576 407.91 257.576 405.906C257.576 405.205 257.627 404.554 257.727 403.953C257.827 403.352 257.927 402.951 258.027 402.751C255.924 402.751 254.221 403.352 252.918 404.554C244.704 413.069 238.343 422.134 233.836 431.751C229.428 441.367 227.224 450.733 227.224 459.849C227.224 468.363 229.328 474.574 233.535 478.481C237.843 482.287 243.703 484.19 251.115 484.19C259.53 484.19 267.744 481.786 275.758 476.978C283.872 472.17 290.433 465.859 295.441 458.046C300.55 450.232 303.104 442.118 303.104 433.704ZM447.341 465.258C447.341 466.26 446.44 468.063 444.636 470.667C440.429 476.377 434.77 481.937 427.657 487.346C420.545 492.655 412.732 495.309 404.217 495.309C395.202 495.309 387.839 492.755 382.129 487.646C376.42 482.437 373.565 474.774 373.565 464.657C373.565 457.745 374.767 449.932 377.171 441.217C379.575 432.502 382.38 424.939 385.585 418.528C388.891 412.017 392.697 406.607 397.005 402.3C401.412 397.993 405.82 395.839 410.227 395.839C414.535 395.839 417.841 397.392 420.144 400.497C422.549 403.602 423.751 407.459 423.751 412.067C423.751 413.77 423.4 415.523 422.699 417.326C422.098 419.029 421.397 420.481 420.595 421.683C419.794 422.885 419.193 423.486 418.792 423.486C417.991 423.486 417.59 423.036 417.59 422.134C417.59 421.834 417.74 421.182 418.041 420.181C418.442 419.079 418.642 418.177 418.642 417.476C418.642 414.972 418.341 412.618 417.74 410.414C417.24 408.511 416.238 406.958 414.735 405.756C413.233 404.454 411.58 403.803 409.777 403.803C402.564 403.803 395.803 410.765 389.492 424.688C386.988 430.298 384.884 436.609 383.181 443.621C381.478 450.633 380.627 457.394 380.627 463.906C380.627 468.413 381.528 472.52 383.331 476.227C385.235 479.933 387.889 482.888 391.295 485.092C394.801 487.296 398.858 488.398 403.466 488.398C410.778 488.398 417.39 486.645 423.3 483.139C429.31 479.633 435.22 475.125 441.03 469.615C441.231 469.415 441.932 468.313 443.134 466.31C444.336 464.206 445.237 463.154 445.839 463.154C446.44 463.154 446.84 463.305 447.041 463.605C447.241 463.906 447.341 464.457 447.341 465.258ZM531.313 445.274C531.313 445.975 531.112 446.726 530.712 447.528C530.411 448.329 529.96 448.93 529.359 449.331C528.658 449.932 527.206 450.483 525.002 450.983C522.798 451.384 521.296 451.635 520.494 451.735C521.296 455.541 521.696 457.394 521.696 457.294C522.397 459.799 523.149 463.255 523.95 467.662C525.753 477.779 527.606 486.394 529.51 493.506C530.011 495.81 530.261 497.163 530.261 497.563C530.261 498.565 529.86 499.416 529.059 500.118C528.258 500.819 527.306 501.17 526.204 501.17C525.202 501.17 524.301 500.619 523.499 499.517C522.698 498.515 522.147 497.613 521.847 496.812C520.945 493.406 520.094 489.6 519.292 485.392C518.591 481.185 517.739 476.127 516.738 470.216C516.337 467.612 515.686 464.406 514.784 460.6C513.883 456.693 513.282 454.139 512.981 452.937C507.071 453.738 496.904 455.341 482.479 457.745L473.764 459.248L470.609 468.113L466.401 480.133C462.895 491.052 460.391 499.467 458.889 505.377C458.588 506.779 457.987 507.931 457.086 508.833C456.184 509.834 455.082 510.335 453.78 510.335C452.678 510.335 451.726 510.035 450.925 509.434C450.224 508.833 449.873 507.981 449.873 506.879C449.873 505.777 450.474 503.423 451.676 499.817C452.878 496.311 453.58 494.208 453.78 493.506C454.181 492.505 454.982 490.201 456.184 486.595C457.486 482.688 459.139 477.98 461.142 472.47C463.246 466.861 464.648 463.154 465.35 461.351C460.241 462.553 456.434 463.505 453.93 464.206C450.124 465.208 447.77 465.709 446.868 465.709C445.766 465.709 444.915 465.308 444.314 464.507C443.813 463.605 443.562 462.653 443.562 461.652C443.562 460.45 443.863 459.648 444.464 459.248C445.065 458.747 446.067 458.296 447.469 457.895C451.276 456.994 455.282 456.092 459.49 455.191C463.797 454.289 466.752 453.688 468.355 453.388C469.357 450.483 470.108 448.028 470.609 446.025C471.009 444.723 471.51 443.12 472.111 441.217C472.812 439.213 473.564 436.759 474.365 433.854L476.619 426.191C480.426 412.768 482.629 405.105 483.23 403.202C483.731 401.799 484.182 400.697 484.583 399.896C485.084 399.095 485.735 398.694 486.536 398.694C488.539 398.694 490.343 398.994 491.945 399.595C492.146 399.395 492.446 398.994 492.847 398.393C493.348 397.692 493.849 397.241 494.349 397.041C494.95 396.741 495.702 396.59 496.603 396.59C498.406 396.59 500.46 398.644 502.764 402.751C505.168 406.858 507.472 411.716 509.676 417.326C510.978 420.631 512.631 425.59 514.634 432.201C516.638 438.712 517.94 443.02 518.541 445.123C520.043 444.923 521.296 444.673 522.297 444.372C523.399 443.971 524.1 443.721 524.401 443.621C524.902 443.421 525.453 443.07 526.054 442.569C526.655 442.068 527.206 441.718 527.707 441.517C528.207 441.217 528.758 441.217 529.359 441.517C530.662 442.118 531.313 443.37 531.313 445.274ZM511.629 446.326C511.128 444.522 510.076 440.766 508.474 435.056C506.871 429.246 505.368 424.538 503.966 420.932C502.563 417.226 500.76 413.419 498.557 409.512C496.353 405.606 494.5 403.152 492.997 402.15L491.344 406.056C489.441 409.863 487.988 413.319 486.987 416.424C484.583 423.637 480.776 435.557 475.567 452.186L493.147 449.18L507.572 446.927L511.629 446.326ZM631.996 481.035C631.996 482.237 631.495 483.69 630.493 485.392C629.492 487.095 628.44 487.947 627.338 487.947C626.336 487.947 625.385 487.797 624.483 487.496C623.581 487.095 622.229 486.394 620.426 485.392C614.115 481.686 605.851 478.08 595.634 474.574C591.126 473.071 585.767 471.519 579.556 469.916C573.446 468.213 568.637 466.961 565.131 466.16L566.183 485.543C566.283 488.247 566.634 490.501 567.235 492.304C567.836 494.208 568.136 495.41 568.136 495.91C568.136 497.012 567.585 497.914 566.484 498.615C565.382 499.416 564.23 499.817 563.028 499.817C561.525 499.817 560.573 498.765 560.173 496.662C560.173 496.461 560.023 495.56 559.722 493.957C559.522 492.354 559.421 490.101 559.421 487.196C559.421 485.292 559.221 481.235 558.82 475.025C558.72 472.921 558.62 470.918 558.52 469.014C558.42 467.011 558.37 465.258 558.37 463.755C558.069 463.455 557.668 463.104 557.168 462.704C556.767 462.303 556.416 461.752 556.116 461.051C555.815 460.149 555.565 459.198 555.365 458.196C555.164 457.194 555.064 456.443 555.064 455.942C555.064 455.241 555.264 454.69 555.665 454.289C556.066 453.888 556.667 453.438 557.468 452.937C556.867 427.894 556.567 413.569 556.567 409.963C556.567 406.758 556.617 403.803 556.717 401.098C556.817 398.393 556.867 396.59 556.867 395.689C556.266 395.789 554.463 396.039 551.458 396.44C548.453 396.841 546.049 397.241 544.245 397.642C537.834 399.145 532.976 400.597 529.671 402C526.265 403.302 523.009 404.804 519.904 406.507C519.002 407.108 518.151 407.609 517.349 408.01C516.448 408.31 515.596 408.461 514.795 408.461C513.994 408.461 513.292 408.11 512.691 407.409C512.09 406.607 511.79 405.656 511.79 404.554C511.79 402.651 514.995 400.447 521.406 397.943C527.817 395.438 534.779 393.385 542.292 391.782C546.499 390.88 551.859 390.129 558.37 389.528C564.881 388.827 570.941 388.476 576.551 388.476C586.167 388.476 594.331 389.528 601.043 391.632C607.854 393.735 612.963 396.69 616.369 400.497C619.875 404.303 621.628 408.661 621.628 413.569C621.628 419.88 619.825 425.289 616.219 429.797C612.613 434.305 607.804 438.212 601.794 441.517C595.884 444.823 587.82 448.579 577.603 452.787C574.998 453.989 572.394 455.091 569.789 456.092C567.285 457.094 565.582 457.795 564.681 458.196C564.681 458.797 564.731 459.248 564.831 459.548C575.649 461.952 586.318 464.707 596.836 467.812L599.991 468.714C610.91 472.02 618.974 474.624 624.182 476.527C629.391 478.33 631.996 479.833 631.996 481.035ZM614.115 413.569C614.115 410.264 612.663 407.208 609.758 404.404C606.853 401.599 602.445 399.345 596.535 397.642C590.725 395.839 583.663 394.937 575.349 394.937C569.138 394.937 565.231 395.038 563.629 395.238C563.529 395.939 563.378 397.592 563.178 400.196C563.078 402.801 563.028 405.405 563.028 408.01L563.629 432.051L564.23 450.683C565.131 450.583 566.884 450.132 569.489 449.331C572.193 448.429 574.447 447.578 576.25 446.776C588.972 441.668 598.438 436.559 604.649 431.45C610.96 426.241 614.115 420.281 614.115 413.569ZM716.14 396.29C716.14 397.492 715.289 398.544 713.586 399.445C710.881 400.948 706.624 402.55 700.814 404.253C695.104 405.956 690.396 407.158 686.69 407.86C680.88 408.961 675.02 409.863 669.109 410.564C663.299 411.165 659.543 411.516 657.84 411.616C657.94 417.426 658.091 423.436 658.291 429.647C658.491 435.757 658.641 439.965 658.742 442.269C662.648 441.768 668.508 440.816 676.322 439.414L682.032 438.512C688.342 437.41 693.201 435.407 696.607 432.502C698.41 431.099 699.712 430.398 700.513 430.398C701.214 430.398 701.765 430.799 702.166 431.6C702.667 432.301 702.917 433.053 702.917 433.854C702.917 435.657 700.864 437.661 696.757 439.864C692.75 441.968 688.292 443.521 683.384 444.522C679.277 445.424 674.669 446.275 669.56 447.077C664.451 447.878 661.096 448.379 659.493 448.579C660.094 465.709 661.847 478.431 664.752 486.745C667.657 487.746 670.512 488.498 673.317 488.999C676.121 489.399 679.728 489.6 684.135 489.6C688.543 489.6 692.75 489.049 696.757 487.947C700.764 486.745 703.969 485.292 706.373 483.589C708.878 481.886 710.13 480.284 710.13 478.781C710.13 477.98 709.979 477.228 709.679 476.527C709.378 475.726 708.978 474.925 708.477 474.123C708.277 473.823 707.926 473.372 707.425 472.771C707.024 472.07 706.824 471.519 706.824 471.118C706.824 470.116 707.926 469.615 710.13 469.615C711.732 469.615 713.085 470.317 714.187 471.719C715.389 473.021 715.99 474.474 715.99 476.076C715.99 479.282 714.537 482.437 711.632 485.543C708.827 488.648 704.921 491.152 699.912 493.056C695.004 495.059 689.544 496.061 683.534 496.061C677.424 496.061 672.415 495.71 668.508 495.009C664.602 494.408 661.647 493.156 659.643 491.253C657.239 488.548 655.536 483.84 654.534 477.128C653.633 470.417 652.832 461.451 652.13 450.232C650.227 450.733 648.073 451.184 645.669 451.585C643.365 451.885 641.612 452.035 640.41 452.035C639.208 452.035 638.206 451.685 637.405 450.983C636.704 450.182 636.353 449.23 636.353 448.129C636.353 447.427 636.453 446.826 636.654 446.326C636.954 445.825 637.355 445.524 637.856 445.424C641.162 445.023 643.566 444.773 645.068 444.673L651.529 443.921C651.129 430.999 650.728 420.481 650.327 412.367C648.825 412.367 647.623 412.417 646.721 412.518L639.809 412.668C638.908 412.668 638.206 412.417 637.706 411.917C637.205 411.416 636.954 410.865 636.954 410.264C636.954 407.86 638.557 406.257 641.763 405.455C642.965 405.255 644.467 405.055 646.27 404.854C648.174 404.554 649.426 404.404 650.027 404.404C651.93 402.3 654.034 401.248 656.338 401.248C656.738 401.248 657.039 401.599 657.239 402.3C657.54 402.901 657.69 403.352 657.69 403.652C664.301 403.352 672.165 402.601 681.28 401.399C687.291 400.597 696.556 398.694 709.078 395.689L714.637 394.487C715.639 394.487 716.14 395.088 716.14 396.29ZM796.347 465.859C796.347 470.868 794.644 475.826 791.238 480.734C787.933 485.543 783.225 489.449 777.114 492.455C771.104 495.56 764.242 497.113 756.529 497.113C750.018 497.113 744.859 496.562 741.052 495.46C737.246 494.458 735.342 493.006 735.342 491.102C735.342 490.101 736.044 488.448 737.446 486.144C738.949 483.74 740.101 482.538 740.902 482.538C742.104 482.538 742.705 482.788 742.705 483.289C742.705 483.589 742.505 483.94 742.104 484.341C741.804 484.741 741.653 485.142 741.653 485.543C741.653 485.843 742.254 486.294 743.456 486.895C744.759 487.496 746.712 488.047 749.316 488.548C751.921 489.049 755.076 489.299 758.783 489.299C764.693 489.299 769.852 488.147 774.259 485.843C778.767 483.539 782.223 480.634 784.627 477.128C787.031 473.622 788.233 470.216 788.233 466.911C788.233 462.603 786.13 458.897 781.922 455.792C777.815 452.686 771.154 449.731 761.938 446.927C753.023 444.022 746.111 441.617 741.203 439.714C736.394 437.711 732.488 435.307 729.482 432.502C726.477 429.597 724.975 426.091 724.975 421.984C724.975 416.474 728.08 411.065 734.291 405.756C740.501 400.347 748.164 395.989 757.28 392.684C766.396 389.278 774.86 387.575 782.674 387.575C786.68 387.575 788.834 388.376 789.135 389.979C789.435 391.582 789.585 393.385 789.585 395.388C789.585 396.891 789.034 397.642 787.933 397.642C787.432 397.642 786.831 397.492 786.13 397.191C785.528 396.791 784.978 396.49 784.477 396.29C783.876 396.089 783.174 395.889 782.373 395.689C781.572 395.488 780.42 395.388 778.917 395.388C773.708 395.388 767.447 396.741 760.135 399.445C752.822 402.15 746.462 405.506 741.052 409.512C735.743 413.519 733.089 417.376 733.089 421.082C733.089 424.087 734.291 426.692 736.695 428.896C739.199 431.099 742.505 433.003 746.612 434.605C750.719 436.108 756.529 438.011 764.042 440.315C775.061 443.521 783.174 447.127 788.383 451.134C793.692 455.141 796.347 460.049 796.347 465.859Z" fill="#F5F5F5"/>
</g>
<g filter="url(#filter5_d_11_3)">
<path d="M57.0166 612.391L43.4345 562.719H49.5465L59.9271 603.174H60.4122L70.9869 562.719H77.7779L88.3526 603.174H88.8377L99.2184 562.719H105.33L91.7482 612.391H85.5392L74.5764 572.809H74.1884L63.2256 612.391H57.0166ZM112.825 612.391V562.719H118.84V584.839H145.325V562.719H151.34V612.391H145.325V590.174H118.84V612.391H112.825ZM165.419 612.391H159.113L177.352 562.719H183.561L201.8 612.391H195.494L180.651 570.577H180.263L165.419 612.391ZM167.748 592.988H193.166V598.324H167.748V592.988ZM201.018 568.055V562.719H238.272V568.055H222.652V612.391H216.637V568.055H201.018ZM391.041 612.391L377.459 562.719H383.571L393.951 603.174H394.436L405.011 562.719H411.802L422.377 603.174H422.862L433.242 562.719H439.354L425.772 612.391H419.563L408.601 572.809H408.213L397.25 612.391H391.041ZM446.849 612.391V562.719H476.827V568.055H452.864V584.839H475.274V590.174H452.864V607.055H477.215V612.391H446.849ZM611.945 612.391L598.363 562.719H604.475L614.855 603.174H615.34L625.915 562.719H632.706L643.281 603.174H643.766L654.147 562.719H660.259L646.676 612.391H640.467L629.505 572.809H629.117L618.154 612.391H611.945ZM667.753 612.391V562.719H697.731V568.055H673.768V584.839H696.179V590.174H673.768V607.055H698.119V612.391H667.753ZM710.61 612.391H704.304L722.543 562.719H728.752L746.99 612.391H740.684L725.841 570.577H725.453L710.61 612.391ZM712.938 592.988H738.356V598.324H712.938V592.988ZM754.727 612.391V562.719H771.511C775.392 562.719 778.577 563.382 781.067 564.708C783.557 566.018 785.4 567.82 786.597 570.116C787.794 572.412 788.392 575.024 788.392 577.95C788.392 580.877 787.794 583.472 786.597 585.736C785.4 588 783.565 589.778 781.091 591.072C778.617 592.349 775.456 592.988 771.608 592.988H758.026V587.555H771.414C774.066 587.555 776.2 587.167 777.817 586.391C779.45 585.615 780.631 584.515 781.358 583.092C782.102 581.653 782.474 579.939 782.474 577.95C782.474 575.962 782.102 574.223 781.358 572.736C780.614 571.248 779.426 570.1 777.793 569.292C776.16 568.467 774.001 568.055 771.317 568.055H760.742V612.391H754.727ZM778.108 590.077L790.332 612.391H783.347L771.317 590.077H778.108Z" fill="#F5F5F5"/>
</g>
<g filter="url(#filter6_d_11_3)">
<line x1="313.631" y1="541.852" x2="312.898" y2="661.02" stroke="#F5F5F5" stroke-width="4.55326"/>
</g>
<g filter="url(#filter7_d_11_3)">
<line x1="550.4" y1="541.852" x2="549.667" y2="661.02" stroke="#F5F5F5" stroke-width="4.55326"/>
</g>
<g filter="url(#filter8_d_11_3)">
<path d="M588.667 93.6497C618.691 101.943 645.308 118.621 665.005 141.479L627.442 170.191C613.893 154.467 595.583 142.994 574.93 137.289L588.667 93.6497Z" fill="#F5F5F5"/>
</g>
<g filter="url(#filter9_d_11_3)">
<path d="M511.581 353.197C539.299 361.652 569.224 359.681 596.073 347.632C622.923 335.583 644.971 314.231 658.327 287.343L622.227 268.86C613.273 286.887 598.49 301.203 580.488 309.282C562.487 317.36 542.423 318.681 523.839 313.012L511.581 353.197Z" fill="#F5F5F5"/>
</g>
<defs>
<filter id="filter0_d_11_3" x="227.937" y="88.8381" width="340.909" height="275.162" filterUnits="userSpaceOnUse" color-interpolation-filters="sRGB">
<feFlood flood-opacity="0" result="BackgroundImageFix"/>
<feColorMatrix in="SourceAlpha" type="matrix" values="0 0 0 0 0 0 0 0 0 0 0 0 0 0 0 0 0 0 127 0" result="hardAlpha"/>
<feOffset dy="4"/>
<feGaussianBlur stdDeviation="2"/>
<feComposite in2="hardAlpha" operator="out"/>
<feColorMatrix type="matrix" values="0 0 0 0 0 0 0 0 0 0 0 0 0 0 0 0 0 0 0.25 0"/>
<feBlend mode="normal" in2="BackgroundImageFix" result="effect1_dropShadow_11_3"/>
<feBlend mode="normal" in="SourceGraphic" in2="effect1_dropShadow_11_3" result="shape"/>
</filter>
<filter id="filter1_d_11_3" x="280.544" y="92.2034" width="82.9215" height="175.332" filterUnits="userSpaceOnUse" color-interpolation-filters="sRGB">
<feFlood flood-opacity="0" result="BackgroundImageFix"/>
<feColorMatrix in="SourceAlpha" type="matrix" values="0 0 0 0 0 0 0 0 0 0 0 0 0 0 0 0 0 0 127 0" result="hardAlpha"/>
<feOffset dy="4"/>
<feGaussianBlur stdDeviation="2"/>
<feComposite in2="hardAlpha" operator="out"/>
<feColorMatrix type="matrix" values="0 0 0 0 0 0 0 0 0 0 0 0 0 0 0 0 0 0 0.25 0"/>
<feBlend mode="normal" in2="BackgroundImageFix" result="effect1_dropShadow_11_3"/>
<feBlend mode="normal" in="SourceGraphic" in2="effect1_dropShadow_11_3" result="shape"/>
</filter>
<filter id="filter2_d_11_3" x="430.801" y="92.2034" width="82.9216" height="175.332" filterUnits="userSpaceOnUse" color-interpolation-filters="sRGB">
<feFlood flood-opacity="0" result="BackgroundImageFix"/>
<feColorMatrix in="SourceAlpha" type="matrix" values="0 0 0 0 0 0 0 0 0 0 0 0 0 0 0 0 0 0 127 0" result="hardAlpha"/>
<feOffset dy="4"/>
<feGaussianBlur stdDeviation="2"/>
<feComposite in2="hardAlpha" operator="out"/>
<feColorMatrix type="matrix" values="0 0 0 0 0 0 0 0 0 0 0 0 0 0 0 0 0 0 0.25 0"/>
<feBlend mode="normal" in2="BackgroundImageFix" result="effect1_dropShadow_11_3"/>
<feBlend mode="normal" in="SourceGraphic" in2="effect1_dropShadow_11_3" result="shape"/>
</filter>
<filter id="filter3_d_11_3" x="341.871" y="186.684" width="110.524" height="175.332" filterUnits="userSpaceOnUse" color-interpolation-filters="sRGB">
<feFlood flood-opacity="0" result="BackgroundImageFix"/>
<feColorMatrix in="SourceAlpha" type="matrix" values="0 0 0 0 0 0 0 0 0 0 0 0 0 0 0 0 0 0 127 0" result="hardAlpha"/>
<feOffset dy="4"/>
<feGaussianBlur stdDeviation="2"/>
<feComposite in2="hardAlpha" operator="out"/>
<feColorMatrix type="matrix" values="0 0 0 0 0 0 0 0 0 0 0 0 0 0 0 0 0 0 0.25 0"/>
<feBlend mode="normal" in2="BackgroundImageFix" result="effect1_dropShadow_11_3"/>
<feBlend mode="normal" in="SourceGraphic" in2="effect1_dropShadow_11_3" result="shape"/>
</filter>
<filter id="filter4_d_11_3" x="0.75647" y="369.394" width="799.591" height="151.796" filterUnits="userSpaceOnUse" color-interpolation-filters="sRGB">
<feFlood flood-opacity="0" result="BackgroundImageFix"/>
<feColorMatrix in="SourceAlpha" type="matrix" values="0 0 0 0 0 0 0 0 0 0 0 0 0 0 0 0 0 0 127 0" result="hardAlpha"/>
<feOffset dy="4"/>
<feGaussianBlur stdDeviation="2"/>
<feComposite in2="hardAlpha" operator="out"/>
<feColorMatrix type="matrix" values="0 0 0 0 0 0 0 0 0 0 0 0 0 0 0 0 0 0 0.25 0"/>
<feBlend mode="normal" in2="BackgroundImageFix" result="effect1_dropShadow_11_3"/>
<feBlend mode="normal" in="SourceGraphic" in2="effect1_dropShadow_11_3" result="shape"/>
</filter>
<filter id="filter5_d_11_3" x="39.4344" y="562.719" width="754.898" height="57.6719" filterUnits="userSpaceOnUse" color-interpolation-filters="sRGB">
<feFlood flood-opacity="0" result="BackgroundImageFix"/>
<feColorMatrix in="SourceAlpha" type="matrix" values="0 0 0 0 0 0 0 0 0 0 0 0 0 0 0 0 0 0 127 0" result="hardAlpha"/>
<feOffset dy="4"/>
<feGaussianBlur stdDeviation="2"/>
<feComposite in2="hardAlpha" operator="out"/>
<feColorMatrix type="matrix" values="0 0 0 0 0 0 0 0 0 0 0 0 0 0 0 0 0 0 0.25 0"/>
<feBlend mode="normal" in2="BackgroundImageFix" result="effect1_dropShadow_11_3"/>
<feBlend mode="normal" in="SourceGraphic" in2="effect1_dropShadow_11_3" result="shape"/>
</filter>
<filter id="filter6_d_11_3" x="306.622" y="541.838" width="13.2861" height="127.196" filterUnits="userSpaceOnUse" color-interpolation-filters="sRGB">
<feFlood flood-opacity="0" result="BackgroundImageFix"/>
<feColorMatrix in="SourceAlpha" type="matrix" values="0 0 0 0 0 0 0 0 0 0 0 0 0 0 0 0 0 0 127 0" result="hardAlpha"/>
<feOffset dy="4"/>
<feGaussianBlur stdDeviation="2"/>
<feComposite in2="hardAlpha" operator="out"/>
<feColorMatrix type="matrix" values="0 0 0 0 0 0 0 0 0 0 0 0 0 0 0 0 0 0 0.25 0"/>
<feBlend mode="normal" in2="BackgroundImageFix" result="effect1_dropShadow_11_3"/>
<feBlend mode="normal" in="SourceGraphic" in2="effect1_dropShadow_11_3" result="shape"/>
</filter>
<filter id="filter7_d_11_3" x="543.391" y="541.838" width="13.2861" height="127.196" filterUnits="userSpaceOnUse" color-interpolation-filters="sRGB">
<feFlood flood-opacity="0" result="BackgroundImageFix"/>
<feColorMatrix in="SourceAlpha" type="matrix" values="0 0 0 0 0 0 0 0 0 0 0 0 0 0 0 0 0 0 127 0" result="hardAlpha"/>
<feOffset dy="4"/>
<feGaussianBlur stdDeviation="2"/>
<feComposite in2="hardAlpha" operator="out"/>
<feColorMatrix type="matrix" values="0 0 0 0 0 0 0 0 0 0 0 0 0 0 0 0 0 0 0.25 0"/>
<feBlend mode="normal" in2="BackgroundImageFix" result="effect1_dropShadow_11_3"/>
<feBlend mode="normal" in="SourceGraphic" in2="effect1_dropShadow_11_3" result="shape"/>
</filter>
<filter id="filter8_d_11_3" x="570.93" y="93.6497" width="98.0745" height="84.5413" filterUnits="userSpaceOnUse" color-interpolation-filters="sRGB">
<feFlood flood-opacity="0" result="BackgroundImageFix"/>
<feColorMatrix in="SourceAlpha" type="matrix" values="0 0 0 0 0 0 0 0 0 0 0 0 0 0 0 0 0 0 127 0" result="hardAlpha"/>
<feOffset dy="4"/>
<feGaussianBlur stdDeviation="2"/>
<feComposite in2="hardAlpha" operator="out"/>
<feColorMatrix type="matrix" values="0 0 0 0 0 0 0 0 0 0 0 0 0 0 0 0 0 0 0.25 0"/>
<feBlend mode="normal" in2="BackgroundImageFix" result="effect1_dropShadow_11_3"/>
<feBlend mode="normal" in="SourceGraphic" in2="effect1_dropShadow_11_3" result="shape"/>
</filter>
<filter id="filter9_d_11_3" x="507.581" y="268.86" width="154.746" height="97.5034" filterUnits="userSpaceOnUse" color-interpolation-filters="sRGB">
<feFlood flood-opacity="0" result="BackgroundImageFix"/>
<feColorMatrix in="SourceAlpha" type="matrix" values="0 0 0 0 0 0 0 0 0 0 0 0 0 0 0 0 0 0 127 0" result="hardAlpha"/>
<feOffset dy="4"/>
<feGaussianBlur stdDeviation="2"/>
<feComposite in2="hardAlpha" operator="out"/>
<feColorMatrix type="matrix" values="0 0 0 0 0 0 0 0 0 0 0 0 0 0 0 0 0 0 0.25 0"/>
<feBlend mode="normal" in2="BackgroundImageFix" result="effect1_dropShadow_11_3"/>
<feBlend mode="normal" in="SourceGraphic" in2="effect1_dropShadow_11_3" result="shape"/>
</filter>
</defs>
</svg>
