<?xml version="1.0" standalone="no"?>
<!DOCTYPE svg PUBLIC "-//W3C//DTD SVG 20010904//EN"
 "http://www.w3.org/TR/2001/REC-SVG-20010904/DTD/svg10.dtd">
<svg version="1.0" xmlns="http://www.w3.org/2000/svg"
 width="48.000000pt" height="48.000000pt" viewBox="0 0 48.000000 48.000000"
 preserveAspectRatio="xMidYMid meet">

<g transform="translate(0.000000,48.000000) scale(0.100000,-0.100000)"
fill="#000000" stroke="none">
<path d="M35 410 c-10 -16 4 -30 30 -30 19 0 26 -9 39 -47 9 -26 16 -73 16
-106 0 -52 3 -62 29 -87 23 -20 27 -30 18 -39 -8 -8 -7 -15 6 -28 16 -16 18
-16 34 -1 13 14 14 20 3 32 -11 14 -5 16 55 16 60 0 66 -2 55 -16 -11 -12 -10
-18 3 -32 16 -15 18 -15 34 0 13 14 14 20 3 32 -8 11 -9 16 -1 16 6 0 11 9 11
20 0 19 -7 20 -105 20 -98 0 -105 1 -105 20 0 18 8 20 101 22 l100 3 38 85 39
85 -154 3 c-138 2 -157 5 -174 22 -21 21 -65 27 -75 10z"/>
</g>
</svg>
