<svg width="816" height="600" viewBox="0 0 816 600" fill="none" xmlns="http://www.w3.org/2000/svg">
<rect width="816" height="600" fill="none"/>
<rect width="816" height="591.537" fill="none"/>
<g filter="url(#filter0_d_0_1)">
<path d="M311.044 286.922L237.991 19.7606H270.865L326.698 237.351H329.307L386.183 19.7606H422.709L479.585 237.351H482.194L538.027 19.7606H570.9L497.848 286.922H464.453L405.489 74.0278H403.402L344.439 286.922H311.044Z" fill="black"/>
</g>
<g filter="url(#filter1_d_0_1)">
<path d="M328.059 190.458L365.52 23.1259H290.598L328.059 190.458Z" fill="black"/>
</g>
<g filter="url(#filter2_d_0_1)">
<path d="M478.317 190.458L515.778 23.1259H440.856L478.317 190.458Z" fill="black"/>
</g>
<g filter="url(#filter3_d_0_1)">
<path d="M403.188 117.606L454.45 284.938H351.926L403.188 117.606Z" fill="black"/>
</g>
<g filter="url(#filter4_d_0_1)">
<path d="M103.67 336.378C103.67 343.59 103.37 351.304 102.769 359.518C102.168 367.732 101.517 374.994 100.815 381.305C100.315 386.714 99.3629 392.674 97.9605 399.186C96.5581 405.697 94.8552 411.306 92.8518 416.014C90.8484 420.622 88.7948 422.926 86.6912 422.926C85.389 422.926 83.8864 420.672 82.1835 416.165C80.4806 411.657 78.2768 405.046 75.5722 396.331L73.0178 387.916C71.2147 382.106 69.2113 376.246 67.0075 370.336C64.8037 364.326 63.1008 360.069 61.8987 357.564L55.4377 379.652C49.5275 399.887 45.2202 413.761 42.5155 421.273C42.4154 421.474 42.1148 422.175 41.614 423.377C41.2133 424.679 40.462 425.631 39.3601 426.232C38.2582 426.933 36.8057 427.284 35.0026 427.284C34.602 427.284 33.7505 424.679 32.4483 419.47C31.2462 414.261 29.9941 408.502 28.6918 402.191C25.3862 387.866 23.6332 380.303 23.4328 379.502C21.0287 369.685 19.0253 362.322 17.4225 357.414C15.9199 352.506 14.5676 349.55 13.3656 348.549C11.6626 347.247 10.8112 345.844 10.8112 344.342C10.8112 343.64 11.312 342.889 12.3138 342.088C13.4157 341.186 14.6678 340.735 16.0702 340.735C17.2723 340.735 18.2239 340.836 18.9251 341.036C19.6263 341.136 20.1772 341.537 20.5779 342.238C21.9803 344.542 24.685 354.259 28.6918 371.388C29.0925 372.69 29.5934 374.644 30.1944 377.248C32.298 385.963 34.051 393.476 35.4534 399.787C36.2548 402.992 36.9059 405.897 37.4068 408.502C38.0078 411.006 38.5087 412.909 38.9093 414.211C39.0095 413.31 40.0112 409.804 41.9145 403.693C45.2202 393.476 47.7745 384.811 49.5776 377.699C51.4809 370.486 53.2339 364.526 54.8366 359.818C56.4394 355.01 57.6915 352.005 58.5931 350.803C59.1941 350.101 59.9955 349.5 60.9972 349C62.0991 348.399 63.1509 348.098 64.1526 348.098C64.8538 348.098 65.4048 348.348 65.8054 348.849C66.2061 349.25 66.5567 349.801 66.8572 350.502C67.1578 351.203 67.4583 351.804 67.7588 352.305C68.7605 354.309 70.3632 358.516 72.567 364.927C74.871 371.338 76.9245 377.649 78.7276 383.859L80.8312 390.771C84.0367 401.89 86.3907 409.303 87.8933 413.009C91.3993 405.997 93.8034 394.277 95.1057 377.849C95.8069 371.638 96.1575 362.873 96.1575 351.554L96.0072 336.378C96.0072 335.076 96.1575 334.174 96.458 333.673C96.7585 333.072 97.4597 332.772 98.5616 332.772C99.7636 332.772 100.916 333.172 102.017 333.974C103.119 334.675 103.67 335.476 103.67 336.378ZM207.796 382.206C207.796 383.809 206.644 384.961 204.341 385.662C202.537 386.263 200.334 386.664 197.729 386.864C195.225 386.965 193.572 387.015 192.771 387.015C192.671 390.12 192.47 393.576 192.17 397.382C191.869 401.189 191.619 404.344 191.418 406.849L190.968 411.507L190.667 416.315L189.766 427.885C189.365 432.994 187.712 435.548 184.807 435.548C183.705 435.548 182.603 434.246 181.501 431.641C180.5 429.137 179.999 427.083 179.999 425.481C179.999 425.08 180.399 424.279 181.201 423.077C182.002 421.874 182.503 420.372 182.703 418.569C183.104 415.764 183.555 411.106 184.056 404.595C184.557 398.084 184.907 392.624 185.108 388.217C181.201 388.517 176.994 388.968 172.486 389.569C170.482 389.769 165.975 390.22 158.963 390.921C151.951 391.623 146.441 392.073 142.434 392.274C142.034 398.885 141.583 406.949 141.082 416.465C140.581 425.981 140.331 431.791 140.331 433.895C140.331 434.696 140.431 435.748 140.631 437.05C140.932 438.353 141.082 439.354 141.082 440.056C141.082 440.957 140.381 441.859 138.978 442.76C137.676 443.662 136.624 444.113 135.823 444.113C134.821 444.113 133.97 443.461 133.269 442.159C132.668 440.857 132.367 439.354 132.367 437.651C132.367 436.75 132.467 435.247 132.668 433.144C132.868 431.14 133.018 429.387 133.118 427.885C133.519 425.18 133.77 422.976 133.87 421.273C134.371 415.363 134.771 409.654 135.072 404.144C135.372 398.635 135.573 394.928 135.673 393.025C129.362 394.127 123.402 394.678 117.792 394.678C115.889 394.678 114.286 394.227 112.984 393.326C111.582 392.324 110.88 390.921 110.88 389.118C110.88 387.816 111.231 386.864 111.932 386.263C112.533 385.562 113.835 385.212 115.839 385.212L123.802 385.362C129.011 385.562 133.219 385.662 136.424 385.662C136.925 377.148 137.175 370.336 137.175 365.227C137.175 353.607 137.075 343.19 136.875 333.974V328.414C136.875 326.912 137.426 325.71 138.528 324.808C139.73 323.806 141.082 323.306 142.585 323.306C143.687 323.306 144.438 324.157 144.839 325.86C145.239 327.563 145.44 329.466 145.44 331.57C145.44 333.773 145.189 338.281 144.688 345.093C144.087 356.713 143.787 362.873 143.787 363.575L143.035 385.061C151.45 384.861 165.724 383.559 185.859 381.155C186.26 378.25 186.961 370.637 187.962 358.316C188.363 351.804 188.714 347.046 189.014 344.041L189.916 332.321C191.218 317.596 191.869 308.38 191.869 304.674C191.869 303.371 192.37 302.32 193.372 301.518C194.373 300.717 195.525 300.316 196.828 300.316C198.631 300.316 199.532 302.069 199.532 305.575C199.532 307.779 199.031 313.639 198.03 323.155C196.928 335.577 196.327 342.488 196.227 343.891C195.626 351.604 195.025 358.967 194.424 365.979C193.923 372.991 193.572 377.699 193.372 380.103C195.175 379.802 196.778 379.352 198.18 378.751C199.983 378.15 201.385 377.849 202.387 377.849C203.389 377.849 204.541 378.45 205.843 379.652C207.145 380.854 207.796 381.706 207.796 382.206ZM315.62 361.471C315.62 371.789 312.715 381.656 306.905 391.072C301.095 400.488 293.633 408.101 284.517 413.911C275.401 419.721 266.186 422.626 256.87 422.626C251.46 422.626 246.352 421.524 241.543 419.32C236.735 417.016 232.828 413.66 229.823 409.253C226.818 404.845 225.316 399.536 225.316 393.326C225.316 382.707 228.07 371.739 233.58 360.419C239.089 349 246.752 338.281 256.569 328.264C257.571 327.362 258.522 326.761 259.424 326.461C260.326 326.16 261.377 326.01 262.579 326.01C263.581 326.01 264.533 326.261 265.434 326.761C266.436 327.262 266.937 327.863 266.937 328.565C266.937 328.965 266.737 329.566 266.336 330.368C266.035 331.069 265.835 331.52 265.735 331.72C266.336 331.72 267.037 331.67 267.838 331.57C268.74 331.369 270.443 331.269 272.947 331.269C275.852 331.269 279.759 331.77 284.667 332.772C289.676 333.673 293.332 334.625 295.636 335.627C302.147 338.532 307.106 342.288 310.512 346.896C313.917 351.404 315.62 356.262 315.62 361.471ZM309.159 364.626C309.159 358.816 307.807 354.108 305.102 350.502C302.398 346.796 298.391 343.741 293.082 341.336C290.177 340.034 286.52 339.383 282.113 339.383C280.71 339.383 278.807 339.483 276.403 339.684L270.844 339.834C266.035 339.834 263.631 338.832 263.631 336.829C263.631 336.127 263.681 335.476 263.781 334.875C263.882 334.274 263.982 333.874 264.082 333.673C261.978 333.673 260.275 334.274 258.973 335.476C250.759 343.991 244.398 353.057 239.891 362.673C235.483 372.289 233.279 381.656 233.279 390.771C233.279 399.286 235.383 405.496 239.59 409.403C243.897 413.21 249.757 415.113 257.17 415.113C265.585 415.113 273.799 412.709 281.812 407.9C289.926 403.092 296.488 396.781 301.496 388.968C306.605 381.155 309.159 373.041 309.159 364.626ZM453.396 396.18C453.396 397.182 452.494 398.985 450.691 401.59C446.484 407.299 440.824 412.859 433.712 418.268C426.6 423.577 418.787 426.232 410.272 426.232C401.256 426.232 393.894 423.678 388.184 418.569C382.474 413.36 379.619 405.697 379.619 395.579C379.619 388.668 380.821 380.854 383.226 372.139C385.63 363.424 388.435 355.861 391.64 349.45C394.946 342.939 398.752 337.53 403.06 333.223C407.467 328.915 411.875 326.761 416.282 326.761C420.59 326.761 423.895 328.314 426.199 331.419C428.603 334.525 429.805 338.381 429.805 342.989C429.805 344.692 429.455 346.445 428.754 348.248C428.153 349.951 427.451 351.404 426.65 352.606C425.849 353.808 425.248 354.409 424.847 354.409C424.046 354.409 423.645 353.958 423.645 353.057C423.645 352.756 423.795 352.105 424.096 351.103C424.496 350.001 424.697 349.1 424.697 348.399C424.697 345.894 424.396 343.54 423.795 341.336C423.294 339.433 422.293 337.88 420.79 336.678C419.287 335.376 417.635 334.725 415.831 334.725C408.619 334.725 401.858 341.687 395.547 355.611C393.042 361.22 390.939 367.531 389.236 374.543C387.533 381.555 386.682 388.317 386.682 394.828C386.682 399.336 387.583 403.443 389.386 407.149C391.289 410.856 393.944 413.811 397.35 416.014C400.856 418.218 404.913 419.32 409.521 419.32C416.833 419.32 423.445 417.567 429.355 414.061C435.365 410.555 441.275 406.047 447.085 400.538C447.285 400.338 447.987 399.236 449.189 397.232C450.391 395.129 451.292 394.077 451.893 394.077C452.494 394.077 452.895 394.227 453.095 394.528C453.296 394.828 453.396 395.379 453.396 396.18ZM537.367 376.196C537.367 376.897 537.167 377.649 536.766 378.45C536.466 379.251 536.015 379.852 535.414 380.253C534.713 380.854 533.26 381.405 531.057 381.906C528.853 382.307 527.35 382.557 526.549 382.657C527.35 386.464 527.751 388.317 527.751 388.217C528.452 390.721 529.204 394.177 530.005 398.585C531.808 408.702 533.661 417.317 535.564 424.429C536.065 426.733 536.316 428.085 536.316 428.486C536.316 429.487 535.915 430.339 535.114 431.04C534.312 431.741 533.361 432.092 532.259 432.092C531.257 432.092 530.355 431.541 529.554 430.439C528.753 429.437 528.202 428.536 527.901 427.734C527 424.329 526.148 420.522 525.347 416.315C524.646 412.108 523.794 407.049 522.793 401.139C522.392 398.534 521.741 395.329 520.839 391.522C519.938 387.616 519.337 385.061 519.036 383.859C513.126 384.661 502.959 386.263 488.534 388.668L479.819 390.17L476.663 399.035L472.456 411.056C468.95 421.975 466.446 430.389 464.943 436.299C464.643 437.702 464.042 438.854 463.14 439.755C462.239 440.757 461.137 441.258 459.835 441.258C458.733 441.258 457.781 440.957 456.98 440.356C456.279 439.755 455.928 438.904 455.928 437.802C455.928 436.7 456.529 434.346 457.731 430.74C458.933 427.234 459.634 425.13 459.835 424.429C460.235 423.427 461.037 421.123 462.239 417.517C463.541 413.61 465.194 408.902 467.197 403.393C469.301 397.783 470.703 394.077 471.404 392.274C466.296 393.476 462.489 394.427 459.985 395.129C456.178 396.13 453.824 396.631 452.923 396.631C451.821 396.631 450.969 396.23 450.368 395.429C449.868 394.528 449.617 393.576 449.617 392.574C449.617 391.372 449.918 390.571 450.519 390.17C451.12 389.669 452.121 389.218 453.524 388.818C457.33 387.916 461.337 387.015 465.544 386.113C469.852 385.212 472.807 384.611 474.41 384.31C475.411 381.405 476.163 378.951 476.663 376.947C477.064 375.645 477.565 374.042 478.166 372.139C478.867 370.136 479.619 367.682 480.42 364.777L482.674 357.113C486.48 343.69 488.684 336.027 489.285 334.124C489.786 332.722 490.237 331.62 490.637 330.818C491.138 330.017 491.789 329.616 492.591 329.616C494.594 329.616 496.397 329.917 498 330.518C498.2 330.318 498.501 329.917 498.902 329.316C499.402 328.615 499.903 328.164 500.404 327.964C501.005 327.663 501.756 327.513 502.658 327.513C504.461 327.513 506.515 329.566 508.819 333.673C511.223 337.78 513.527 342.639 515.73 348.248C517.033 351.554 518.685 356.512 520.689 363.124C522.692 369.635 523.995 373.942 524.596 376.046C526.098 375.846 527.35 375.595 528.352 375.295C529.454 374.894 530.155 374.644 530.456 374.543C530.957 374.343 531.507 373.992 532.108 373.492C532.71 372.991 533.26 372.64 533.761 372.44C534.262 372.139 534.813 372.139 535.414 372.44C536.716 373.041 537.367 374.293 537.367 376.196ZM517.684 377.248C517.183 375.445 516.131 371.688 514.528 365.979C512.926 360.169 511.423 355.461 510.021 351.854C508.618 348.148 506.815 344.342 504.611 340.435C502.408 336.528 500.554 334.074 499.052 333.072L497.399 336.979C495.496 340.785 494.043 344.241 493.042 347.347C490.637 354.559 486.831 366.48 481.622 383.108L499.202 380.103L513.627 377.849L517.684 377.248ZM638.051 411.957C638.051 413.16 637.55 414.612 636.548 416.315C635.546 418.018 634.495 418.869 633.393 418.869C632.391 418.869 631.439 418.719 630.538 418.419C629.636 418.018 628.284 417.317 626.481 416.315C620.17 412.609 611.906 409.002 601.688 405.496C597.181 403.994 591.821 402.441 585.611 400.838C579.5 399.135 574.692 397.883 571.186 397.082L572.238 416.465C572.338 419.17 572.689 421.424 573.29 423.227C573.891 425.13 574.191 426.332 574.191 426.833C574.191 427.935 573.64 428.836 572.538 429.538C571.436 430.339 570.284 430.74 569.082 430.74C567.58 430.74 566.628 429.688 566.228 427.584C566.228 427.384 566.077 426.482 565.777 424.88C565.576 423.277 565.476 421.023 565.476 418.118C565.476 416.215 565.276 412.158 564.875 405.947C564.775 403.844 564.675 401.84 564.575 399.937C564.475 397.933 564.424 396.18 564.424 394.678C564.124 394.377 563.723 394.027 563.222 393.626C562.822 393.225 562.471 392.674 562.171 391.973C561.87 391.072 561.62 390.12 561.419 389.118C561.219 388.117 561.119 387.365 561.119 386.864C561.119 386.163 561.319 385.612 561.72 385.212C562.12 384.811 562.722 384.36 563.523 383.859C562.922 358.816 562.621 344.492 562.621 340.886C562.621 337.68 562.671 334.725 562.772 332.02C562.872 329.316 562.922 327.513 562.922 326.611C562.321 326.711 560.518 326.962 557.513 327.362C554.507 327.763 552.103 328.164 550.3 328.565C543.889 330.067 539.031 331.52 535.725 332.922C532.319 334.224 529.064 335.727 525.959 337.43C525.057 338.031 524.206 338.532 523.404 338.932C522.503 339.233 521.651 339.383 520.85 339.383C520.048 339.383 519.347 339.032 518.746 338.331C518.145 337.53 517.845 336.578 517.845 335.476C517.845 333.573 521.05 331.369 527.461 328.865C533.872 326.361 540.834 324.307 548.347 322.704C552.554 321.803 557.913 321.052 564.424 320.451C570.936 319.749 576.996 319.399 582.606 319.399C592.222 319.399 600.386 320.451 607.098 322.554C613.909 324.658 619.018 327.613 622.424 331.419C625.93 335.226 627.683 339.583 627.683 344.492C627.683 350.803 625.88 356.212 622.274 360.72C618.667 365.227 613.859 369.134 607.849 372.44C601.939 375.745 593.875 379.502 583.657 383.709C581.053 384.911 578.448 386.013 575.844 387.015C573.34 388.016 571.637 388.718 570.735 389.118C570.735 389.719 570.785 390.17 570.886 390.471C581.704 392.875 592.372 395.629 602.89 398.735L606.046 399.636C616.964 402.942 625.028 405.546 630.237 407.45C635.446 409.253 638.051 410.755 638.051 411.957ZM620.17 344.492C620.17 341.186 618.717 338.131 615.813 335.326C612.908 332.521 608.5 330.267 602.59 328.565C596.78 326.761 589.718 325.86 581.404 325.86C575.193 325.86 571.286 325.96 569.683 326.16C569.583 326.862 569.433 328.514 569.233 331.119C569.133 333.723 569.082 336.328 569.082 338.932L569.683 362.974L570.284 381.605C571.186 381.505 572.939 381.054 575.543 380.253C578.248 379.352 580.502 378.5 582.305 377.699C595.027 372.59 604.493 367.481 610.704 362.372C617.015 357.164 620.17 351.203 620.17 344.492ZM722.195 327.212C722.195 328.414 721.343 329.466 719.64 330.368C716.936 331.87 712.678 333.473 706.868 335.176C701.159 336.879 696.451 338.081 692.744 338.782C686.934 339.884 681.074 340.785 675.164 341.487C669.354 342.088 665.598 342.438 663.895 342.538C663.995 348.348 664.145 354.359 664.346 360.569C664.546 366.68 664.696 370.887 664.796 373.191C668.703 372.69 674.563 371.739 682.377 370.336L688.086 369.435C694.397 368.333 699.255 366.329 702.661 363.424C704.464 362.022 705.767 361.321 706.568 361.321C707.269 361.321 707.82 361.721 708.221 362.523C708.722 363.224 708.972 363.975 708.972 364.777C708.972 366.58 706.919 368.583 702.812 370.787C698.805 372.89 694.347 374.443 689.439 375.445C685.332 376.346 680.724 377.198 675.615 377.999C670.506 378.801 667.15 379.301 665.548 379.502C666.149 396.631 667.902 409.353 670.807 417.667C673.712 418.669 676.567 419.42 679.371 419.921C682.176 420.322 685.782 420.522 690.19 420.522C694.597 420.522 698.805 419.971 702.812 418.869C706.818 417.667 710.024 416.215 712.428 414.512C714.932 412.809 716.184 411.206 716.184 409.704C716.184 408.902 716.034 408.151 715.734 407.45C715.433 406.648 715.032 405.847 714.532 405.046C714.331 404.745 713.981 404.294 713.48 403.693C713.079 402.992 712.879 402.441 712.879 402.04C712.879 401.039 713.981 400.538 716.184 400.538C717.787 400.538 719.14 401.239 720.241 402.641C721.443 403.944 722.045 405.396 722.045 406.999C722.045 410.204 720.592 413.36 717.687 416.465C714.882 419.57 710.976 422.075 705.967 423.978C701.059 425.981 695.599 426.983 689.589 426.983C683.478 426.983 678.47 426.633 674.563 425.931C670.656 425.33 667.701 424.078 665.698 422.175C663.294 419.47 661.591 414.762 660.589 408.051C659.688 401.339 658.886 392.374 658.185 381.155C656.282 381.656 654.128 382.106 651.724 382.507C649.42 382.807 647.667 382.958 646.465 382.958C645.263 382.958 644.261 382.607 643.46 381.906C642.759 381.105 642.408 380.153 642.408 379.051C642.408 378.35 642.508 377.749 642.709 377.248C643.009 376.747 643.41 376.447 643.911 376.346C647.216 375.946 649.62 375.695 651.123 375.595L657.584 374.844C657.183 361.922 656.783 351.404 656.382 343.29C654.879 343.29 653.677 343.34 652.776 343.44L645.864 343.59C644.962 343.59 644.261 343.34 643.76 342.839C643.259 342.338 643.009 341.787 643.009 341.186C643.009 338.782 644.612 337.179 647.817 336.378C649.019 336.178 650.522 335.977 652.325 335.777C654.228 335.476 655.48 335.326 656.081 335.326C657.985 333.223 660.088 332.171 662.392 332.171C662.793 332.171 663.093 332.521 663.294 333.223C663.594 333.824 663.745 334.274 663.745 334.575C670.356 334.274 678.219 333.523 687.335 332.321C693.345 331.52 702.611 329.616 715.133 326.611L720.692 325.409C721.694 325.409 722.195 326.01 722.195 327.212ZM802.402 396.781C802.402 401.79 800.699 406.749 797.293 411.657C793.987 416.465 789.279 420.372 783.169 423.377C777.159 426.482 770.297 428.035 762.584 428.035C756.072 428.035 750.914 427.484 747.107 426.382C743.3 425.38 741.397 423.928 741.397 422.025C741.397 421.023 742.098 419.37 743.501 417.066C745.003 414.662 746.155 413.46 746.957 413.46C748.159 413.46 748.76 413.71 748.76 414.211C748.76 414.512 748.559 414.862 748.159 415.263C747.858 415.664 747.708 416.064 747.708 416.465C747.708 416.766 748.309 417.216 749.511 417.817C750.813 418.419 752.767 418.969 755.371 419.47C757.976 419.971 761.131 420.222 764.837 420.222C770.748 420.222 775.906 419.07 780.314 416.766C784.822 414.462 788.278 411.557 790.682 408.051C793.086 404.545 794.288 401.139 794.288 397.833C794.288 393.526 792.184 389.82 787.977 386.714C783.87 383.609 777.209 380.654 767.993 377.849C759.078 374.944 752.166 372.54 747.257 370.637C742.449 368.633 738.542 366.229 735.537 363.424C732.532 360.519 731.029 357.013 731.029 352.906C731.029 347.397 734.135 341.988 740.345 336.678C746.556 331.269 754.219 326.912 763.335 323.606C772.45 320.2 780.915 318.497 788.728 318.497C792.735 318.497 794.889 319.299 795.189 320.901C795.49 322.504 795.64 324.307 795.64 326.311C795.64 327.813 795.089 328.565 793.987 328.565C793.486 328.565 792.885 328.414 792.184 328.114C791.583 327.713 791.032 327.413 790.531 327.212C789.93 327.012 789.229 326.812 788.428 326.611C787.626 326.411 786.474 326.311 784.972 326.311C779.763 326.311 773.502 327.663 766.19 330.368C758.877 333.072 752.516 336.428 747.107 340.435C741.798 344.442 739.143 348.298 739.143 352.005C739.143 355.01 740.345 357.614 742.75 359.818C745.254 362.022 748.559 363.925 752.667 365.528C756.774 367.03 762.584 368.934 770.096 371.238C781.115 374.443 789.229 378.049 794.438 382.056C799.747 386.063 802.402 390.971 802.402 396.781Z" fill="black"/>
</g>
<g filter="url(#filter5_d_0_1)">
<path d="M63.0715 543.313L49.4893 493.641H55.6013L65.9819 534.097H66.467L77.0417 493.641H83.8328L94.4074 534.097H94.8925L105.273 493.641H111.385L97.803 543.313H91.594L80.6312 503.731H80.2432L69.2804 543.313H63.0715ZM118.88 543.313V493.641H124.895V515.761H151.38V493.641H157.395V543.313H151.38V521.097H124.895V543.313H118.88ZM171.474 543.313H165.168L183.407 493.641H189.616L207.855 543.313H201.549L186.705 501.5H186.317L171.474 543.313ZM173.802 523.91H199.22V529.246H173.802V523.91ZM207.073 498.977V493.641H244.327V498.977H228.707V543.313H222.692V498.977H207.073ZM397.096 543.313L383.513 493.641H389.625L400.006 534.097H400.491L411.066 493.641H417.857L428.432 534.097H428.917L439.297 493.641H445.409L431.827 543.313H425.618L414.655 503.731H414.267L403.305 543.313H397.096ZM452.904 543.313V493.641H482.881V498.977H458.919V515.761H481.329V521.097H458.919V537.978H483.27V543.313H452.904ZM618 543.313L604.418 493.641H610.53L620.91 534.097H621.395L631.97 493.641H638.761L649.336 534.097H649.821L660.201 493.641H666.313L652.731 543.313H646.522L635.56 503.731H635.171L624.209 543.313H618ZM673.808 543.313V493.641H703.786V498.977H679.823V515.761H702.233V521.097H679.823V537.978H704.174V543.313H673.808ZM716.664 543.313H710.358L728.597 493.641H734.806L753.045 543.313H746.739L731.896 501.5H731.508L716.664 543.313ZM718.993 523.91H744.411V529.246H718.993V523.91ZM760.782 543.313V493.641H777.566C781.447 493.641 784.632 494.304 787.122 495.63C789.612 496.94 791.455 498.743 792.652 501.039C793.848 503.335 794.447 505.946 794.447 508.873C794.447 511.8 793.848 514.395 792.652 516.658C791.455 518.922 789.62 520.701 787.146 521.994C784.672 523.272 781.511 523.91 777.663 523.91H764.081V518.477H777.469C780.121 518.477 782.255 518.089 783.872 517.313C785.505 516.537 786.685 515.438 787.413 514.015C788.157 512.576 788.529 510.862 788.529 508.873C788.529 506.884 788.157 505.146 787.413 503.658C786.669 502.171 785.481 501.023 783.848 500.214C782.215 499.39 780.056 498.977 777.372 498.977H766.797V543.313H760.782ZM784.163 521L796.387 543.313H789.402L777.372 521H784.163Z" fill="black"/>
</g>
<g filter="url(#filter6_d_0_1)">
<line x1="319.686" y1="472.774" x2="318.953" y2="591.942" stroke="black" stroke-width="4.55326"/>
</g>
<g filter="url(#filter7_d_0_1)">
<line x1="556.455" y1="472.774" x2="555.722" y2="591.942" stroke="black" stroke-width="4.55326"/>
</g>
<g filter="url(#filter8_d_0_1)">
<path d="M594.722 24.5722C624.746 32.8658 651.363 49.543 671.059 72.4018L633.497 101.114C619.948 85.389 601.638 73.9168 580.985 68.2117L594.722 24.5722Z" fill="black"/>
</g>
<g filter="url(#filter9_d_0_1)">
<path d="M517.636 284.119C545.354 292.575 575.279 290.604 602.128 278.555C628.978 266.506 651.026 245.153 664.382 218.266L628.282 199.782C619.328 217.809 604.545 232.126 586.543 240.204C568.541 248.282 548.478 249.604 529.894 243.935L517.636 284.119Z" fill="black"/>
</g>
<defs>
<filter id="filter0_d_0_1" x="233.992" y="19.7606" width="340.909" height="275.162" filterUnits="userSpaceOnUse" color-interpolation-filters="sRGB">
<feFlood flood-opacity="0" result="BackgroundImageFix"/>
<feColorMatrix in="SourceAlpha" type="matrix" values="0 0 0 0 0 0 0 0 0 0 0 0 0 0 0 0 0 0 127 0" result="hardAlpha"/>
<feOffset dy="4"/>
<feGaussianBlur stdDeviation="2"/>
<feComposite in2="hardAlpha" operator="out"/>
<feColorMatrix type="matrix" values="0 0 0 0 0 0 0 0 0 0 0 0 0 0 0 0 0 0 0.25 0"/>
<feBlend mode="normal" in2="BackgroundImageFix" result="effect1_dropShadow_0_1"/>
<feBlend mode="normal" in="SourceGraphic" in2="effect1_dropShadow_0_1" result="shape"/>
</filter>
<filter id="filter1_d_0_1" x="286.599" y="23.1259" width="82.9214" height="175.332" filterUnits="userSpaceOnUse" color-interpolation-filters="sRGB">
<feFlood flood-opacity="0" result="BackgroundImageFix"/>
<feColorMatrix in="SourceAlpha" type="matrix" values="0 0 0 0 0 0 0 0 0 0 0 0 0 0 0 0 0 0 127 0" result="hardAlpha"/>
<feOffset dy="4"/>
<feGaussianBlur stdDeviation="2"/>
<feComposite in2="hardAlpha" operator="out"/>
<feColorMatrix type="matrix" values="0 0 0 0 0 0 0 0 0 0 0 0 0 0 0 0 0 0 0.25 0"/>
<feBlend mode="normal" in2="BackgroundImageFix" result="effect1_dropShadow_0_1"/>
<feBlend mode="normal" in="SourceGraphic" in2="effect1_dropShadow_0_1" result="shape"/>
</filter>
<filter id="filter2_d_0_1" x="436.856" y="23.1259" width="82.9215" height="175.332" filterUnits="userSpaceOnUse" color-interpolation-filters="sRGB">
<feFlood flood-opacity="0" result="BackgroundImageFix"/>
<feColorMatrix in="SourceAlpha" type="matrix" values="0 0 0 0 0 0 0 0 0 0 0 0 0 0 0 0 0 0 127 0" result="hardAlpha"/>
<feOffset dy="4"/>
<feGaussianBlur stdDeviation="2"/>
<feComposite in2="hardAlpha" operator="out"/>
<feColorMatrix type="matrix" values="0 0 0 0 0 0 0 0 0 0 0 0 0 0 0 0 0 0 0.25 0"/>
<feBlend mode="normal" in2="BackgroundImageFix" result="effect1_dropShadow_0_1"/>
<feBlend mode="normal" in="SourceGraphic" in2="effect1_dropShadow_0_1" result="shape"/>
</filter>
<filter id="filter3_d_0_1" x="347.926" y="117.606" width="110.524" height="175.332" filterUnits="userSpaceOnUse" color-interpolation-filters="sRGB">
<feFlood flood-opacity="0" result="BackgroundImageFix"/>
<feColorMatrix in="SourceAlpha" type="matrix" values="0 0 0 0 0 0 0 0 0 0 0 0 0 0 0 0 0 0 127 0" result="hardAlpha"/>
<feOffset dy="4"/>
<feGaussianBlur stdDeviation="2"/>
<feComposite in2="hardAlpha" operator="out"/>
<feColorMatrix type="matrix" values="0 0 0 0 0 0 0 0 0 0 0 0 0 0 0 0 0 0 0.25 0"/>
<feBlend mode="normal" in2="BackgroundImageFix" result="effect1_dropShadow_0_1"/>
<feBlend mode="normal" in="SourceGraphic" in2="effect1_dropShadow_0_1" result="shape"/>
</filter>
<filter id="filter4_d_0_1" x="6.81116" y="300.316" width="799.591" height="151.796" filterUnits="userSpaceOnUse" color-interpolation-filters="sRGB">
<feFlood flood-opacity="0" result="BackgroundImageFix"/>
<feColorMatrix in="SourceAlpha" type="matrix" values="0 0 0 0 0 0 0 0 0 0 0 0 0 0 0 0 0 0 127 0" result="hardAlpha"/>
<feOffset dy="4"/>
<feGaussianBlur stdDeviation="2"/>
<feComposite in2="hardAlpha" operator="out"/>
<feColorMatrix type="matrix" values="0 0 0 0 0 0 0 0 0 0 0 0 0 0 0 0 0 0 0.25 0"/>
<feBlend mode="normal" in2="BackgroundImageFix" result="effect1_dropShadow_0_1"/>
<feBlend mode="normal" in="SourceGraphic" in2="effect1_dropShadow_0_1" result="shape"/>
</filter>
<filter id="filter5_d_0_1" x="45.4893" y="493.641" width="754.898" height="57.6719" filterUnits="userSpaceOnUse" color-interpolation-filters="sRGB">
<feFlood flood-opacity="0" result="BackgroundImageFix"/>
<feColorMatrix in="SourceAlpha" type="matrix" values="0 0 0 0 0 0 0 0 0 0 0 0 0 0 0 0 0 0 127 0" result="hardAlpha"/>
<feOffset dy="4"/>
<feGaussianBlur stdDeviation="2"/>
<feComposite in2="hardAlpha" operator="out"/>
<feColorMatrix type="matrix" values="0 0 0 0 0 0 0 0 0 0 0 0 0 0 0 0 0 0 0.25 0"/>
<feBlend mode="normal" in2="BackgroundImageFix" result="effect1_dropShadow_0_1"/>
<feBlend mode="normal" in="SourceGraphic" in2="effect1_dropShadow_0_1" result="shape"/>
</filter>
<filter id="filter6_d_0_1" x="312.676" y="472.76" width="13.2861" height="127.196" filterUnits="userSpaceOnUse" color-interpolation-filters="sRGB">
<feFlood flood-opacity="0" result="BackgroundImageFix"/>
<feColorMatrix in="SourceAlpha" type="matrix" values="0 0 0 0 0 0 0 0 0 0 0 0 0 0 0 0 0 0 127 0" result="hardAlpha"/>
<feOffset dy="4"/>
<feGaussianBlur stdDeviation="2"/>
<feComposite in2="hardAlpha" operator="out"/>
<feColorMatrix type="matrix" values="0 0 0 0 0 0 0 0 0 0 0 0 0 0 0 0 0 0 0.25 0"/>
<feBlend mode="normal" in2="BackgroundImageFix" result="effect1_dropShadow_0_1"/>
<feBlend mode="normal" in="SourceGraphic" in2="effect1_dropShadow_0_1" result="shape"/>
</filter>
<filter id="filter7_d_0_1" x="549.446" y="472.76" width="13.2861" height="127.196" filterUnits="userSpaceOnUse" color-interpolation-filters="sRGB">
<feFlood flood-opacity="0" result="BackgroundImageFix"/>
<feColorMatrix in="SourceAlpha" type="matrix" values="0 0 0 0 0 0 0 0 0 0 0 0 0 0 0 0 0 0 127 0" result="hardAlpha"/>
<feOffset dy="4"/>
<feGaussianBlur stdDeviation="2"/>
<feComposite in2="hardAlpha" operator="out"/>
<feColorMatrix type="matrix" values="0 0 0 0 0 0 0 0 0 0 0 0 0 0 0 0 0 0 0.25 0"/>
<feBlend mode="normal" in2="BackgroundImageFix" result="effect1_dropShadow_0_1"/>
<feBlend mode="normal" in="SourceGraphic" in2="effect1_dropShadow_0_1" result="shape"/>
</filter>
<filter id="filter8_d_0_1" x="576.985" y="24.5722" width="98.0746" height="84.5413" filterUnits="userSpaceOnUse" color-interpolation-filters="sRGB">
<feFlood flood-opacity="0" result="BackgroundImageFix"/>
<feColorMatrix in="SourceAlpha" type="matrix" values="0 0 0 0 0 0 0 0 0 0 0 0 0 0 0 0 0 0 127 0" result="hardAlpha"/>
<feOffset dy="4"/>
<feGaussianBlur stdDeviation="2"/>
<feComposite in2="hardAlpha" operator="out"/>
<feColorMatrix type="matrix" values="0 0 0 0 0 0 0 0 0 0 0 0 0 0 0 0 0 0 0.25 0"/>
<feBlend mode="normal" in2="BackgroundImageFix" result="effect1_dropShadow_0_1"/>
<feBlend mode="normal" in="SourceGraphic" in2="effect1_dropShadow_0_1" result="shape"/>
</filter>
<filter id="filter9_d_0_1" x="513.636" y="199.782" width="154.746" height="97.5034" filterUnits="userSpaceOnUse" color-interpolation-filters="sRGB">
<feFlood flood-opacity="0" result="BackgroundImageFix"/>
<feColorMatrix in="SourceAlpha" type="matrix" values="0 0 0 0 0 0 0 0 0 0 0 0 0 0 0 0 0 0 127 0" result="hardAlpha"/>
<feOffset dy="4"/>
<feGaussianBlur stdDeviation="2"/>
<feComposite in2="hardAlpha" operator="out"/>
<feColorMatrix type="matrix" values="0 0 0 0 0 0 0 0 0 0 0 0 0 0 0 0 0 0 0.25 0"/>
<feBlend mode="normal" in2="BackgroundImageFix" result="effect1_dropShadow_0_1"/>
<feBlend mode="normal" in="SourceGraphic" in2="effect1_dropShadow_0_1" result="shape"/>
</filter>
</defs>
</svg>
